<svg xmlns="http://www.w3.org/2000/svg" xmlns:xlink="http://www.w3.org/1999/xlink" version="1.1" xml:space="preserve" viewBox="0 0 1280 1024">
<desc>Created with Fabric.js 4.4.0</desc>
<defs>
</defs>
<g transform="matrix(1 0 0 1 640 512)" id="background-logo">
<rect style="stroke: none; stroke-width: 0; stroke-dasharray: none; stroke-linecap: butt; stroke-dashoffset: 0; stroke-linejoin: miter; stroke-miterlimit: 4; fill: rgb(255,255,255); fill-opacity: 0; fill-rule: nonzero; opacity: 1;" paint-order="stroke" x="-640" y="-512" rx="0" ry="0" width="1280" height="1024"/>
</g>
<g transform="matrix(1.9211538461538462 0 0 1.9211538461538462 640 410.15869079109245)" id="logo-logo">
<g style="" paint-order="stroke">
		<g transform="matrix(0.612421883691811 0 0 0.6124218836918109 0.0015975201565083808 -48.27984410571668)">
<linearGradient id="SVGID_5_40895" gradientUnits="userSpaceOnUse" gradientTransform="matrix(1 0 0 1 400.72090138987005 394.2179565)" x1="0" y1="0" x2="0" y2="103">
<stop offset="0%" style="stop-color:rgb(101,121,155);stop-opacity: 1"/>
<stop offset="100%" style="stop-color:rgb(94,37,99);stop-opacity: 1"/>
</linearGradient>
<path style="stroke: none; stroke-width: 1; stroke-dasharray: none; stroke-linecap: butt; stroke-dashoffset: 0; stroke-linejoin: miter; stroke-miterlimit: 4; fill: url(#SVGID_5_40895); fill-rule: nonzero; opacity: 1;" paint-order="stroke" transform=" translate(-507.2734519788574, -445.6647644)" d="M 402.4694214 439.7467346 C 403.38534549999997 440.6723327 403.85717769999997 441.7120666 403.5706482 442.8972473 C 403.3759766 443.4223327 402.8936768 443.9474182 402.8032837 444.4725036 C 402.696106 444.997589 402.859314 445.5226745 403.140686 446.04775989999996 C 404.3219909 448.11447129999993 404.15939330000003 450.5768126 402.46939080000004 452.3487853 C 402.46945180000006 452.3487853 402.1694335 452.3487853 402.1694335 452.3487853 C 400.94741810000005 451.0043639 400.4110106 449.3338622 400.90164180000005 447.6230468 C 400.98626700000005 446.5935363 402.07937620000007 445.5485839 401.83557120000006 444.4725036 C 401.7451781000001 443.94741819999996 401.26293940000005 443.42233269999997 401.06829830000004 442.8972473 C 400.8771972 442.3721619 400.99902340000006 441.8470764 401.15124510000004 441.321991 C 401.33428950000007 440.7969056 401.60388180000007 440.2718201 402.16943360000005 439.74673470000005 L 402.4694214 439.74673470000005 L 402.4694214 439.7467346 z M 507.4301758 394.2179565 L 507.130188 394.2179565 C 506.5576172 398.5052185 506.3051758 402.7924499 506.11788939999997 407.0796814 C 505.55593869999996 415.6713867 506.38034059999995 424.23678590000003 506.79382319999996 432.8030701 C 507.0382385 441.38116460000003 505.96426389999993 449.954834 505.86233519999996 458.52648930000004 C 505.449707 471.412323 505.73330689999995 484.25753790000005 507.130188 497.11157230000003 L 507.4301758 497.11157230000003 C 508.3951416 488.5371094 508.74206539999994 479.9626465 508.8800354 471.38818360000005 C 508.885376 462.80740360000004 508.6909485 454.23223880000006 508.1014404 445.6647644 C 507.8198242 441.377533 507.6647339 437.0903015 507.7665405 432.8030701 C 507.850769 428.5158387 508.340393 424.2286072 508.52877800000005 419.9413758 C 508.7756653 411.3491821 508.4666748 402.7690735 507.4301758 394.2179565 L 507.4301758 394.2179565 z M 495.9317627 433.5982666 C 495.9317322 433.5982666 495.6317749 433.5974731 495.6317749 433.5974731 C 495.0592041 436.0665588 494.8067627 438.5367431 494.61950679999995 441.0071411 C 494.0466612999999 445.97766110000003 494.88342279999995 450.9042969 495.29788199999996 455.8320618 C 495.53613269999994 460.77987670000005 494.46710199999995 465.7196045 494.36395259999995 470.6563416 C 493.94445799999994 478.1080323 494.23904419999997 485.49462900000003 495.6317748999999 492.89028940000003 C 495.6317748999999 492.89028940000003 495.9317626999999 492.88949590000004 495.9317626999999 492.88949590000004 C 496.89770509999994 487.94607550000006 497.2415160999999 483.00531010000003 497.3838500999999 478.0647584 C 497.3964232999999 473.1140138 497.1846923999999 468.1722413 496.6030272999999 463.2438661 C 496.3203124999999 460.77355969999996 496.1688231999999 458.3030092 496.2656249999999 455.8326723 C 496.3560180999999 453.3623049 496.8382567999999 450.8924257 497.0330199999999 448.422455 C 497.2913208 443.451355 496.9559021 438.5005798 495.9317627 433.5982666 L 495.9317627 433.5982666 z M 495.9317627 399.2065125 L 495.6317749 399.204712 C 495.0662231 400.37210089999996 494.79663089999997 401.54193119999996 494.6138611 402.7122804 C 494.0517273 405.170807 494.8879395 407.3859559 495.2979126 409.7407228 C 495.544281 412.0953065 494.4602661 414.4342042 494.3639526 416.7672731 C 493.9400024 420.36074840000003 494.2507324 423.82180800000003 495.6317749 427.3021852 C 495.6317444 427.3021852 495.9317627 427.30050669999997 495.9317627 427.30050669999997 C 496.8977051 424.9540406 497.2414551 422.61334239999996 497.3838196 420.2731019 C 497.3967896 417.911316 497.18029789999997 415.56906139999995 496.6030274 413.25366219999995 C 496.32159429999996 412.0833436 496.1584473 410.91259769999994 496.26562509999997 409.74230969999996 C 496.3560182 408.5719911 496.8382569 407.4028016 497.03298959999995 406.23342909999997 C 497.3000793 403.8276672 496.9352722 401.473999 495.9317627 399.2065125 L 495.9317627 399.2065125 z M 483.7658691 404.4828186 C 483.7658691 404.4828186 483.46591179999996 404.4828186 483.4658813 404.4828186 C 482.8933105 407.94656369999996 482.6408691 411.4103088 482.45364379999995 414.874054 C 481.88735959999997 421.8222046 482.71383669999994 428.7391968 483.1319885 435.6565247 C 483.3704529 442.5885621 482.30154419999997 449.5149537 482.19805909999997 456.43899539999995 C 481.7841797 466.86013799999995 482.06982419999997 477.23095709999996 483.46588139999994 487.61270149999996 C 483.46588139999994 487.61270149999996 483.76586919999994 487.61270149999996 483.76586919999994 487.61270149999996 C 484.73181159999996 480.68521129999993 485.0756225999999 473.75772099999995 485.21792609999994 466.8302308 C 485.2180786999999 459.89492809999996 485.0278930999999 452.96661389999997 484.43713389999994 446.0477601 C 484.1544190999999 442.584015 484.00292979999995 439.1202699 484.09979259999994 435.6565247 C 484.18896499999994 432.1927796 484.6750488999999 428.72903449999995 484.86453259999996 425.26528929999995 C 485.1231689 418.3156738 484.7940979 411.3813782 483.7658691 404.4828186 L 483.7658691 404.4828186 z M 471.8162231 461.1484375 C 471.8161926 461.1484375 471.5162353 461.1484375 471.5162353 461.1484375 C 470.9506835 462.0473938 470.6810913 462.9463196 470.4980468 463.8452454 C 470.3458251 464.7442017 470.2239379 465.6431275 470.4151 466.5420838 C 470.6096801 467.4410096 471.0919188 468.3399659 471.1823119 469.2388917 C 471.2895507 470.1378175 471.1263427 471.0367738 470.8449096 471.9356996 C 470.2723693 473.70196550000003 470.0456542 475.5031129 470.06414789999997 477.3293764 C 470.20080559999997 479.2072145 470.5843811 481.0027468 471.51623529999995 482.7229616 C 471.51623529999995 482.7229616 471.81619259999997 482.7229616 471.8162535999999 482.7229921 C 472.7481077999999 481.0018007 473.13150019999995 479.2076723 473.26827999999995 477.3293459 C 473.28677369999997 475.5032961 473.06005859999993 473.7018435 472.48748779999994 471.93569970000004 C 472.2060546999999 471.03677390000007 472.04290769999994 470.13781760000006 472.15008549999993 469.23889180000003 C 472.24047859999996 468.33996600000006 472.72271729999994 467.44100970000005 472.9174499999999 466.5420839 C 473.1890869 464.662384 472.802002 462.8522034 471.8162231 461.1484375 L 471.8162231 461.1484375 z M 471.8162231 409.6655884 C 471.8162231 409.6655884 471.5162048 409.6668396 471.5162353 409.6668396 C 470.9411621 411.5516357 470.6968383 413.4345703 470.498352 415.3172607 C 469.9382934 419.12115470000003 470.7664184 422.8612365 471.182312 426.6090393 C 471.42044070000003 430.3815613 470.3512878 434.144165 470.2483826 437.901886 C 469.8276978 443.6044922 470.1267701 449.2096558 471.5162354 454.8451538 C 471.5162354 454.8451538 471.81619270000004 454.8464355 471.8162232 454.8464355 C 472.78216560000004 451.0853881 473.12591560000004 447.32003779999997 473.2682801 443.5543212 C 473.2809449 439.7750243 473.06823740000004 436.0059508 472.4874879 432.2560424 C 472.2047731 430.3732604 472.05328380000003 428.4908141 472.1500856 426.6080627 C 472.24047870000004 424.7253723 472.7227174 422.8419189 472.91748060000003 420.9585571 C 473.1783752 417.1546326 472.8370361 413.3763733 471.8162231 409.6655884 L 471.8162231 409.6655884 z M 459.7388306 414.9050293 C 459.7388306 414.9050293 459.43878179999996 414.9050293 459.43878179999996 414.9050293 C 458.866272 417.50024410000003 458.61376959999996 420.09548950000004 458.42657479999997 422.69070430000005 C 457.8537904 427.90936270000003 458.6901246 433.08425900000003 459.1049195 438.26208490000005 C 459.3432313 443.45855710000006 458.27426149999997 448.64758290000003 458.1709901 453.83343500000007 C 457.7515565 461.6583557000001 458.04592909999997 469.4170837000001 459.43878179999996 477.19049070000005 C 459.43881229999994 477.19049070000005 459.73880009999993 477.19049070000005 459.7388306 477.19049070000005 C 460.704773 472.00003050000004 461.048523 466.8095703000001 461.1908875 461.61911010000006 C 461.2034607 456.41888430000006 460.9918519 451.2266235000001 460.4100342 446.04776000000004 C 460.1273194 443.45251460000003 459.9758911 440.8572998 460.0726929 438.262085 C 460.163086 435.6668396 460.6453247 433.0716248 460.8400574 430.47637940000004 C 461.0981445 425.2576599 460.7638245 420.0572815 459.7388306 414.9050293 L 459.7388306 414.9050293 z M 447.6867065 439.31604 C 447.6867065 439.31604 447.3867492 439.3214721 447.3867187 439.3214721 C 446.82128900000004 440.6916198 446.55169670000004 442.0542297 446.36892700000004 443.4152221 C 445.80758670000006 446.1890868 446.64141850000004 448.86572259999997 447.05285640000005 451.5625304 C 447.2998352000001 454.290161 446.2163391 457.0073851 446.11889640000004 459.7153624 C 445.695465 463.87411480000003 446.00469960000004 467.882141 447.3867187 471.9600218 C 447.3867187 471.9600218 447.6867065 471.9652708 447.6867065 471.9652708 C 448.6524658 469.2611387 448.9963378 466.5390013 449.13873290000004 463.8154295 C 449.15155030000005 461.0729063 448.93692020000003 458.342285 448.3579712 455.6404417 C 448.0765381 454.2791136 447.9133911 452.9192503 448.0205689 451.5579222 C 448.110962 450.1968382 448.5932007 448.8322142 448.7878724 447.4682005 C 449.0519409 444.6958008 448.7016296 441.9578552 447.6867065 439.31604 L 447.6867065 439.31604 z M 447.6867065 420.1328735 C 447.6867065 420.1328735 447.38668820000004 420.1328735 447.3867187 420.1328735 C 446.82116690000004 420.6628723 446.5515747 421.1928711 446.3685302 421.7228698 C 446.2163085 422.2528686 446.0944823 422.7828674 446.2855834 423.3128661 C 446.4801635 423.84289540000003 446.9624633 424.3728942 447.0528258 424.902893 C 447.2967528 425.9886169 446.2037047 427.0434264 446.1188964 428.0829162 C 445.6291503 429.8072814 446.1621398 431.4927673 447.38671869999996 432.8529357 C 447.38671869999996 432.8529357 447.68670649999996 432.8529357 447.68664549999994 432.8529357 C 449.3789977999999 431.0597228 449.53808589999994 428.5791015 448.35797119999995 426.4928893 C 448.07653809999994 425.9628905 447.91339109999996 425.4328917 448.02056889999994 424.902893 C 448.110962 424.3728942 448.59320069999995 423.84289540000003 448.78793339999993 423.3128661 C 449.0741882 422.118866 448.604187 421.068634 447.6867065 420.1328735 L 447.6867065 420.1328735 z M 435.4623413 454.2319031 L 435.1623535 454.2319031 C 434.5968017 454.7649536 434.3272095 455.2979737 434.144165 455.8310242 C 433.9919433 456.3640442 433.8700561 456.8970948 434.0612182 457.4301148 C 434.2557983 457.96313480000003 434.73803699999996 458.4961854 434.82846059999997 459.0292054 C 435.0724486 460.1209107 433.9794311 461.1817628 433.89453119999996 462.2274476 C 433.40527339999994 463.9600526 433.93627919999994 465.6549073 435.16235349999994 467.0247193 C 435.16235349999994 467.0247193 435.46234129999993 467.0247193 435.4622802999999 467.0247193 C 437.1560668999999 465.2184754 437.3128967999999 462.726532 436.13360599999993 460.62829600000003 C 435.8521728999999 460.095276 435.68902589999993 459.56225600000005 435.7962036999999 459.0292054 C 435.8865967999999 458.4961854 436.36883549999993 457.96313480000003 436.5635681999999 457.4301148 C 436.8496094 456.2306824 436.3807983 455.1739502 435.4623413 454.2319031 L 435.4623413 454.2319031 z M 435.4623413 425.4354248 C 435.4623413 425.4354248 435.1623535 425.4354248 435.1623535 425.4354248 C 434.5968017 426.367157 434.3272095 427.2988892 434.144165 428.2306213 C 433.9919433 429.1623535 433.8700561 430.0940857 434.0612182 431.02581779999997 C 434.2557983 431.95758049999995 434.73803699999996 432.88931269999995 434.8284301 433.82104489999995 C 434.9356689 434.75277709999995 434.7724609 435.68450929999995 434.4910278 436.6162413999999 C 433.91787719999996 438.4490660999999 433.6918335 440.31582639999993 433.71026609999996 442.20666499999993 C 433.8466797 444.1474913999999 434.22817989999993 446.00927729999995 435.16235349999994 447.79705809999996 C 435.16235349999994 447.79705809999996 435.46234129999993 447.79705809999996 435.4623717999999 447.79708859999994 C 436.3965453999999 446.00833129999995 436.7778929999999 444.14791869999993 436.91439819999994 442.20663449999995 C 436.93286129999996 440.31600949999995 436.70678709999993 438.44894409999995 436.13360599999993 436.6162413999999 C 435.8521728999999 435.6845091999999 435.68902589999993 434.7527769999999 435.7962036999999 433.82104489999995 C 435.8865967999999 432.88931269999995 436.36883549999993 431.95758049999995 436.5635681999999 431.02581779999997 C 436.8344421 429.083313 436.4511414 427.2070312 435.4623413 425.4354248 L 435.4623413 425.4354248 z M 423.8565674 430.4696655 L 423.5565796 430.4696655 C 422.99102780000004 431.7678222 422.7214356 433.0660095 422.5386963 434.3641662 C 421.9768677 437.0160522 422.81295780000005 439.5809631 423.2226868 442.1532287 C 423.46942140000004 444.7606506 422.38565070000004 447.3546447 422.2887268 449.9423217 C 421.8656616 453.91247549999997 422.1734314 457.754486 423.5565796 461.6258544 L 423.8565674 461.6258544 C 424.82250980000003 459.0295104 425.1663208 456.4331664 425.3086548 453.83682239999996 C 425.3214722 451.22091659999995 425.1062012 448.62152089999995 424.527832 446.04775989999996 C 424.2463989 444.74957259999996 424.0832519 443.4514159 424.1904297 442.15322869999994 C 424.2808228 440.85504139999995 424.7630615 439.55688469999996 424.95779419999997 438.2586974999999 C 425.2232361 435.60495 424.8665771 432.9949341 423.8565674 430.4696655 L 423.8565674 430.4696655 z M 412.394043 435.4417419 L 412.0940552 435.4417419 C 411.52850340000003 436.3255615 411.2589112 437.2094116 411.0758667 438.0932312 C 410.923645 438.9770813 410.8018188 439.8609009 410.9929199 440.744751 C 411.187561 441.6285706 411.6697998 442.5124207 411.7601928 443.3962403 C 411.86737050000005 444.2800904 411.70416250000005 445.16391 411.4227599 446.0477601 C 410.8505248 447.7833253 410.6235045 449.5543214 410.6419982 451.3507997 C 410.77880849999997 453.19973769999996 411.16342149999997 454.96463029999995 412.0940551 456.6537782 C 412.0940551 456.6537782 412.3940429 456.6537782 412.3941039 456.65380869999996 C 413.324768 454.96368419999993 413.7091979 453.20016489999995 413.8461303 451.3507691 C 413.86462400000005 449.5544739 413.6376037 447.7832032 413.0653075 446.0477601 C 412.7839354 445.16391 412.6207274 444.2800904 412.7279052 443.3962403 C 412.81829830000004 442.5124207 413.3005981 441.6285706 413.49530020000003 440.744751 C 413.7672729 438.8939514 413.3783875 437.1141968 412.394043 435.4417419 L 412.394043 435.4417419 z M 518.9285889 437.4262085 C 518.9285889 437.4262085 518.6285401 437.425415 518.6285401 437.425415 C 518.0560303 439.8094177 517.8035279000001 442.19458 517.616272 444.5799255 C 517.0434571 449.3814087 517.8804322 454.1374817 518.2946777999999 458.8947448 C 518.5330200999999 463.67272940000004 517.4638061999999 468.4422912 517.3607178 473.20880120000004 C 516.9411011 480.40686030000006 517.236084 487.53735340000003 518.6285401 494.67752070000006 L 518.9285889 494.6767272000001 C 519.8945313 489.9033507000001 520.2382813 485.1326903000001 520.3806153 480.36221300000005 C 520.3932496 475.58117660000005 520.1813965 470.80935660000006 519.5997925 466.0514830000001 C 519.3170777 463.6661986000001 519.1656494 461.2807005000001 519.2624512 458.89538560000005 C 519.3528443 456.5100401 519.8350829999999 454.12521350000003 520.0297852 451.74032580000005 C 520.2883911 446.9381409 519.9520874 442.157196 518.9285889 437.4262085 L 518.9285889 437.4262085 z M 518.9285889 400.9935913 C 518.9285889 400.9935913 518.6285401 400.9921265 518.6285401 400.9921265 C 518.0630494 402.2279053 517.7934571 403.4657898 517.6106568 404.70407109999996 C 517.048523 407.23895269999997 517.8862305 409.68685919999996 518.2946778 412.138855 C 518.5413209000001 414.628357 517.4573365 417.103302 517.3607178000001 419.5723877 C 516.9373169 423.3652649 517.2460938 427.0321045 518.6285401000001 430.71786499999996 C 518.6285401000001 430.71786499999996 518.9285889000001 430.71633909999997 518.9285889000001 430.71633909999997 C 519.8945313000002 428.23468019999996 520.2382813000002 425.75811769999996 520.3806153000002 423.28198239999995 C 520.3934937000001 420.78555299999994 520.1777344000002 418.3073729999999 519.5997925000001 415.85494989999995 C 519.3184204000002 414.61679069999997 519.1552735000001 413.3782348 519.2624512000001 412.14004509999995 C 519.3528443000001 410.90176389999993 519.835083 409.66442859999995 520.0297852000001 408.42697139999996 C 520.2960815 405.8890991 519.9353027 403.3995667 518.9285889 400.9935913 L 518.9285889 400.9935913 z M 531.0944214 459.7384338 C 531.0944214 459.7384338 530.7944946 459.7321167 530.7944946 459.7321167 C 530.2290649 460.9565735 529.9594726 462.18978880000003 529.7766723 463.4248352 C 529.2143553999999 465.9545288 530.0527343 468.4094849 530.4605712 470.8569031 C 530.7069091 473.3442688 529.6228026 475.815094 529.5266112 478.2827454 C 529.1040038000001 482.0631104 529.4101561 485.7421875 530.7944945 489.4030152 L 531.0944213 489.39685060000005 C 532.0601806 486.9057617 532.4040526 484.43579100000005 532.5464477 481.96749880000004 C 532.5593261 479.47912600000006 532.3434448 477.01245120000004 531.7656860000001 474.56781010000003 C 531.4843139000001 473.33319100000006 531.3211059 472.0968323 531.4282837000001 470.8621521 C 531.5186768000001 469.6271973 532.0009155 468.3963013 532.1956177000001 467.1647644 C 532.4625244 464.6293335 532.0980835 462.1485291 531.0944214 459.7384338 L 531.0944214 459.7384338 z M 531.0944214 406.2720947 C 531.0944214 406.2720947 530.7944335999999 406.26797480000005 530.7944335999999 406.26797480000005 C 530.2194214 408.20275870000006 529.9750976999999 410.14367670000007 529.7765502999999 412.08529660000005 C 529.2165527 416.0075378 530.0447387999999 419.88171380000006 530.4605713 423.75024410000003 C 530.6984863 427.64562980000005 529.6292725 431.52941890000005 529.5265502999999 435.4112243 C 529.1066284 441.2857971 529.4031372 447.0944518 530.7944335999999 452.8905029 C 530.7944335999999 452.8905029 531.0944214 452.8864746 531.0944214 452.8864746 C 532.0603027 448.9891052 532.4041138 445.10559079999996 532.5464478 441.22317499999997 C 532.5590821 437.32797239999996 532.3465577000001 433.4464111 531.7656861 429.5793457 C 531.4829713 427.6378479 531.331482 425.6952515 531.4282838 423.7536621 C 531.5186769000001 421.8119202 532.0009156 419.87280269999997 532.1956788 417.9333191 C 532.4569092 414.0078735 532.1137085 410.1138611 531.0944214 406.2720947 L 531.0944214 406.2720947 z M 543.0441284 411.4534607 C 543.0441284 411.4534607 542.7441405999999 411.4534607 542.7441405999999 411.4534607 C 542.1715697999999 414.4974976 541.9190673999999 417.5415039 541.7318114999999 420.5855408 C 541.1654662999999 426.69711309999997 541.9925536999999 432.7731629 542.4102172999999 438.84973149999996 C 542.6486816999999 444.94296269999995 541.5796508999999 451.02975469999996 541.4762572999999 457.11392219999993 C 541.0571898999999 466.2795105999999 541.3503417999999 475.3886413999999 542.7441405999999 484.51022349999994 L 543.0441284 484.51022349999994 C 544.0100708 478.42214979999994 544.3538208 472.3340759999999 544.4961548 466.24603279999997 C 544.5087891 460.14962779999996 544.2974243 454.0600282 543.7153931 447.9818421 C 543.4326783 444.9378052 543.281189 441.8937684 543.3779908 438.8497315 C 543.4672242 435.80569460000004 543.9532471 432.7616578 544.1427613000001 429.7176514 C 544.4016724 423.6044312 544.071167 417.5087585 543.0441284 411.4534607 L 543.0441284 411.4534607 z M 555.12146 445.5655212 C 555.12146 445.5655212 554.8215332 445.559143 554.8215332 445.559143 C 554.2271728 446.93954460000003 553.9313354 448.3287658 553.7255858999999 449.71994010000003 C 553.1192016 452.5522765 553.9226074 455.3232421 554.3183593 458.09008780000005 C 554.5498046 460.88827510000004 553.4655761 463.67230220000005 553.3829955 466.45483390000004 C 552.9841308 470.70974720000004 553.3451537 474.85498040000004 554.8215331 478.98101800000006 L 555.1214599 478.97442620000004 C 556.026184 476.16992180000005 556.3244018 473.38763420000004 556.4365844 470.60699460000006 C 556.4194946 467.80853270000006 556.1900634 465.02996820000004 555.6113891 462.2701721000001 C 555.3306884 460.87924190000007 555.1715698 459.4865112000001 555.2860717 458.0955200000001 C 555.3847045 456.7042236000001 555.8785399999999 455.3171387000001 556.0879516 453.9293823000001 C 556.3839722 451.0966492 556.0768433 448.3025513 555.12146 445.5655212 L 555.12146 445.5655212 z M 555.121521 416.6922607 L 554.8215332 416.6922607 C 554.2559814 417.6226196 553.9863892 418.552948 553.8033447 419.48330680000004 C 553.651123 420.41363520000004 553.5292968 421.34399410000003 553.7203979000001 422.27435290000005 C 553.9149780000001 423.20468130000006 554.3972778000001 424.13504020000005 554.4876708 425.06539900000007 C 554.5948485 425.9957274000001 554.4316405000001 426.92608630000007 554.1502074 427.85641460000005 C 553.5770873 429.68646220000005 553.3510131 431.55041480000006 553.3694457 433.43853740000003 C 553.5058593 435.3767088 553.8874511 437.2356565 554.8215331 439.02059920000005 C 554.8215331 439.02059920000005 555.1215209000001 439.02059920000005 555.1215209000001 439.02062970000003 C 556.0556640000001 437.2347105 556.4370116000001 435.377136 556.5736083 433.43850690000005 C 556.5920409 431.55059800000004 556.3659667000001 429.6863402000001 555.7927855 427.85641460000005 C 555.5113524000001 426.92608620000004 555.3482054 425.99572730000006 555.4553832 425.06539900000007 C 555.5457763 424.1350401000001 556.028015 423.2046812000001 556.2227782 422.27435290000005 C 556.4936523 420.3344421 556.1102295 418.4610291 555.121521 416.6922607 L 555.121521 416.6922607 z M 567.173645 421.920105 L 566.8735962 421.920105 C 566.298584 424.07968139999997 566.0541992 426.23925779999996 565.8557129 428.39883419999995 C 565.2960816 432.75192259999994 566.1225585999999 437.05212399999994 566.5397339 441.35626219999995 C 566.7780151 445.68267819999994 565.7088013 450.00006099999996 565.6057739 454.3137206999999 C 565.185791 460.83938599999993 565.4822387 467.2857970999999 566.8735962000001 473.74987789999994 L 567.1736450000001 473.74987789999994 C 568.1395874000001 469.43072509999996 568.4833374000001 465.11157219999996 568.6256714000001 460.79244989999995 C 568.6383057 456.46151729999997 568.4261475000001 452.14028929999995 567.8448486000001 447.8349914 C 567.5621338000001 445.675415 567.4107055000001 443.5158386 567.5075073 441.3562622 C 567.5979004000001 439.1966858 568.0801391 437.0371094 568.2749023 434.877533 C 568.5350342 430.5238647 568.1969604 426.1934814 567.173645 421.920105 L 567.173645 421.920105 z M 579.3980103 456.019165 L 579.0980225 456.019165 C 578.5324707 456.552185 578.2628784999999 457.085205 578.079834 457.6182556 C 577.9276123 458.1512756 577.8057251 458.6843262 577.9968872000001 459.2173462 C 578.1914673000001 459.75036620000003 578.673706 460.2834168 578.7640991000001 460.8164368 C 579.0081177000001 461.9081421 577.9151001 462.9689942 577.8302002 464.014679 C 577.3409424 465.7473145 577.8719482 467.4421387 579.0980225000001 468.8119507 C 579.0980225000001 468.8119507 579.3980103000001 468.8119507 579.3979493 468.8119507 C 581.0916749 467.0057373 581.2485963 464.51373290000004 580.0692750000001 462.4155579 C 579.7878419000001 461.8825074 579.6246949 461.3494873 579.7318727 460.8164368 C 579.8222658000001 460.2834168 580.3045045 459.75036620000003 580.4992677 459.2173462 C 580.7852783 458.0179443 580.3164673 456.9611511 579.3980103 456.019165 L 579.3980103 456.019165 z M 579.3980103 427.2226562 C 579.3980103 427.2226562 579.0980225 427.2226562 579.0980225 427.2226562 C 578.5324707 428.13989250000003 578.2628784999999 429.0571289 578.079834 429.9743957 C 577.9276123 430.891632 577.8057251 431.8088684 577.9968872000001 432.7261047 C 578.1914673000001 433.643341 578.673706 434.5606079 578.7640991000001 435.4778442 C 578.8713379000001 436.3950805 578.7081299 437.3123169 578.4266968000001 438.2295532 C 577.8537598 440.03302 577.6275025000001 441.8707275 577.6459351000001 443.7330627 C 577.7824097000001 445.6460571 578.1648560000001 447.4785461 579.0980225000001 449.2364807 C 579.0980225000001 449.2364807 579.3980103000001 449.2364807 579.3980103000001 449.2365112 C 580.3311768000001 447.4775695 580.7134400000001 445.6464843 580.8500367000001 443.73303219999997 C 580.8685304000002 441.87091059999995 580.6422120000002 440.03289789999997 580.0692750000002 438.22955319999994 C 579.7878419000002 437.3123168999999 579.6246949000001 436.39508049999995 579.7318727000002 435.47784419999994 C 579.8222658000002 434.5606078999999 580.3045045000001 433.64334099999996 580.4992677000001 432.72610469999995 C 580.7704468 430.8114014 580.385498 428.9642639 579.3980103 427.2226562 L 579.3980103 427.2226562 z M 591.0037842 432.256897 L 590.7037354 432.256897 C 590.1382447 433.5550537 589.8686524 434.85324099999997 589.6858521 436.1514282 C 589.1240845 438.8032532 589.9601441 441.3682556 590.3698731000001 443.9404602 C 590.6166382 446.54788210000004 589.5328370000001 449.1418762 589.4359131000001 451.7295532 C 589.0128174000001 455.699707 589.3206177000001 459.5417175 590.7037354000001 463.4130859 L 591.0037842000002 463.4130859 C 591.9697266000002 460.8167419 592.3134766000002 458.2203979 592.4558106000002 455.6240539 C 592.4686890000002 453.00814809999997 592.2534180000001 450.40875239999997 591.6749878000002 447.8349914 C 591.3936157000002 446.5368041 591.2304688000002 445.2386474 591.3376465000001 443.94046019999996 C 591.4280396000001 442.64230349999997 591.9102783000001 441.3441162 592.1050415000001 440.04592899999994 C 592.3703613 437.3921814 592.0137939 434.7821655 591.0037842 432.256897 L 591.0037842 432.256897 z M 602.4662476 437.2289734 L 602.1662597999999 437.2289734 C 601.6007079999999 438.1128235 601.3311157999999 438.9966431 601.1481323999999 439.8804932 C 600.9958496999999 440.76431279999997 600.8740234999999 441.6481629 601.0651245999999 442.53198249999997 C 601.2597656999999 443.4158326 601.7420044999999 444.29965219999997 601.8323974999998 445.1835023 C 601.9395751999998 446.06732189999997 601.7764282999998 446.951172 601.4949340999998 447.83499159999997 C 600.9227294999998 449.57055679999996 600.6957397999998 451.34155289999995 600.7142333999998 453.13803119999994 C 600.8509521999998 454.9869691999999 601.2356566999998 456.7518617999999 602.1662597999998 458.44100969999994 C 602.1662597999998 458.44100969999994 602.4662475999999 458.44100969999994 602.4662475999999 458.4410401999999 C 603.3970336999998 456.7509156999999 603.7813720999999 454.9873963999999 603.9183349999998 453.13800059999994 C 603.9368286999999 451.34170539999997 603.7098388999998 449.57043469999996 603.1375121999998 447.83499159999997 C 602.8561400999998 446.951172 602.6929320999998 446.06732189999997 602.8001708999998 445.1835023 C 602.8905639999998 444.29965219999997 603.3728026999997 443.4158326 603.5675048999998 442.53198249999997 C 603.8395386 440.6811829 603.4505005 438.9014282 602.4662476 437.2289734 L 602.4662476 437.2289734 z M 612.3908691 441.5339661 C 612.3908691 441.5339661 612.0908813 441.5339661 612.0908813 441.5339661 C 611.5253295 442.0590515 611.2557373 442.584137 611.0727539 443.10922239999996 C 610.9204712 443.6343078 610.798645 444.1593933 610.9897460999999 444.68447869999994 C 611.1843872 445.20956409999997 611.666626 445.73464959999995 611.7570189999999 446.2597349999999 C 612.0008543999999 447.3358152999999 610.9076537999999 448.3807676999999 610.8231200999999 449.41027819999994 C 610.3324584999999 451.12109359999994 610.8688353999999 452.7915952999999 612.0908812999999 454.1360166999999 C 612.0908812999999 454.1360166999999 612.3908690999999 454.1360166999999 612.3908080999998 454.1360166999999 C 614.0808104999999 452.3640745999999 614.2434691999998 449.90170269999993 613.0621337999999 447.8349912999999 C 612.7807616999999 447.3099058999999 612.6175536999998 446.7848203999999 612.7247924999998 446.2597349999999 C 612.8151855999998 445.7346495999999 613.2974242999998 445.2095640999999 613.4921264999998 444.68447869999994 C 613.7786865 443.4992981 613.3067627 442.4595642 612.3908691 441.5339661 L 612.3908691 441.5339661 z" stroke-linecap="round"/>
</g>
		<g transform="matrix(0.612421883691811 0 0 0.6124218836918109 36.58818926558422 17.093603424187194)">
<path style="stroke: none; stroke-width: 1; stroke-dasharray: none; stroke-linecap: butt; stroke-dashoffset: 0; stroke-linejoin: miter; stroke-miterlimit: 4; fill: rgb(60,21,127); fill-rule: nonzero; opacity: 1;" paint-order="stroke" transform=" translate(-567.0142821478838, -552.4105376499999)" d="M 507.220459 501.8707275 C 516.7478638 496.6072082 526.586731 492.0038757 536.6550293 487.905426 C 541.7086182 485.9186401 546.8820801 484.2082519 551.8942261 482.1259765 C 561.9513549999999 478.0300292 571.4805908 472.72589109999996 581.3952637 468.3140563 C 596.1845703 461.4493407 611.2209473 455.235382 626.7073975 450.040924 C 626.7073975 450.0409545 626.8267823 450.316162 626.8267823 450.316162 C 612.4525146999999 458.0744017 597.6411744 464.807495 582.5236817 470.9154662 C 572.5278931 475.1401366 562.1438599 478.4738158 552.2813111 483.0183715 C 542.494629 487.71463 532.8718873 492.7868041 522.6785279000001 496.59588610000003 C 517.6254273000001 498.5837096 512.5463258000001 500.51165760000004 507.33984380000004 502.1459654 C 507.3398132 502.1459656 507.220459 501.8707275 507.220459 501.8707275 L 507.220459 501.8707275 z M 602.144104 490.7305603 C 602.144104 490.7305603 602.2828369 490.99655149999995 602.2828369 490.99655149999995 C 602.9155273 491.006134 603.4962158 490.9289856 604.0596924 490.82275389999995 C 605.7115479 490.5086974999999 607.3339234 490.03594969999995 608.7623902 489.14318849999995 C 609.6973878 488.5226135 610.5312501000001 487.64337159999997 611.5245362000001 487.13055419999995 C 613.5019532 486.04031369999996 615.9743043000001 486.21389769999996 618.0679322000001 485.4677123999999 C 621.4133301 484.56698609999995 624.3880616000001 483.00149539999995 626.8302613000001 480.34899899999994 L 626.7039185000001 480.0769042999999 C 624.2791138000001 480.1372985999999 622.1237793000001 480.68612669999993 620.0175171000001 481.4058837999999 C 617.9364014 482.2534789999999 615.947937 483.28878789999993 614.1240234 484.65090939999993 C 613.1952514000001 485.3325499999999 612.2247924000001 485.90710449999995 611.1519775 486.23736569999994 C 610.0865478000001 486.58441159999995 608.8677978000001 486.57916259999996 607.7580566 486.85122679999995 C 605.5368652 487.5322571 603.5985107 488.8454895 602.144104 490.7305603 L 602.144104 490.7305603 z M 507.2155762 531.9073486 C 507.2155762 531.9073486 507.3447571 532.1781006 507.34478759999996 532.1781616 C 510.96020509999994 531.0979004 514.4613036999999 529.7640991 517.9544066999999 528.3790892999999 C 525.0245970999999 525.8227539 531.5570677999999 522.1160887999999 538.2927855999999 518.8458861999999 C 545.1137694999999 515.7242430999999 552.4500731999999 513.8657836999998 559.4044188999999 511.08029169999986 C 569.9656981999999 507.1225279999999 580.2301634999999 502.4451903999999 589.8114012999998 496.40661619999986 L 589.6840208999998 496.13500979999986 C 582.4954222999999 498.44091799999984 575.5238646999999 501.13052369999986 568.5881346999998 503.93911749999984 C 561.6932371999999 506.86972049999986 554.8502196999998 509.9139099999998 548.1650999999998 513.3202514999998 C 544.8116453999999 515.0140991999998 541.4124144999998 516.5963134999998 537.9166258999999 517.9488525999998 C 534.4291990999999 519.3206787999998 530.7879637999998 520.3348388999998 527.2667235999999 521.6439209999998 C 520.2660522 524.3959961 513.5164795 527.7630005 507.2155762 531.9073486 L 507.2155762 531.9073486 z M 537.8196411 533.649353 C 537.8196411 533.649353 537.9382324000001 533.9249267 537.9382324000001 533.9249267 C 541.868103 532.8443603000001 545.6712036 531.4698486 549.4484863 530.0354614 C 557.095581 527.3311157 564.1682739 523.3639526000001 571.4031982 519.7754516 C 578.7169189 516.3364868 586.5447387 514.1116332 593.9895629 510.9934692 C 605.2922362 506.5406799 616.2684325 501.4695434 626.8255614 495.3682861 C 626.8255614 495.3682861 626.708618 495.09201049999996 626.708618 495.09201049999996 C 618.9249876 497.4164734 611.3812254 500.3106079 603.9191893 503.39697269999994 C 596.501953 506.60861209999996 589.1691893 510.00128179999996 582.0006711999999 513.7532958999999 C 578.4073483999999 515.6188964999999 574.7645871999999 517.3681029999999 571.0207518 518.8811034999999 C 567.2838744 520.4101561999998 563.38739 521.5666503999998 559.6091917 523.0001830999998 C 552.0854492 525.9944458 544.7936401 529.4949341 537.8196411 533.649353 L 537.8196411 533.649353 z M 507.2144775 546.9250488 L 507.3458252 547.1947632 C 508.01031489999997 547.2040405 508.6276856 547.1264038 509.2272949 547.015625 C 510.9902954 546.6885376 512.7250976 546.1920166 514.2652588 545.2682495 C 515.27594 544.6271973 516.1836548 543.7244263 517.2469483 543.1877441 C 519.3640137 542.0492553 521.9728394 542.1640625 524.2017212 541.3474121 C 527.7421875 540.3419189 530.9145507999999 538.6414795000001 533.5057982999999 535.8474121 L 533.3746947999999 535.5775757 C 530.8198851999999 535.7443848 528.5442505 536.3857422 526.3168944999999 537.1842041 C 524.1162108999998 538.1100464 522.0059203999999 539.2094727 520.0512084999999 540.6289673 C 519.0569457999999 541.3383789 518.0186156999999 541.9395142 516.8778686999999 542.2930908 C 515.7442017 542.663269 514.4595947999999 542.6781616 513.2828979999999 542.9667969 C 510.9277954 543.6824341 508.849823 545.0122681 507.2144775 546.9250488 L 507.2144775 546.9250488 z M 571.6099243 534.4733276 C 571.6099243 534.4733276 571.7271728 534.7495117 571.7271728 534.7495117 C 574.2542113999999 534.2943725 576.6569824 533.5294189 579.0269774999999 532.6912841999999 C 583.8717040999999 531.1803588999999 588.0796508 528.3593749999999 592.4583128999999 525.9196166999999 C 596.9220579999999 523.6351928999999 601.9201048999998 522.5481566999999 606.5305174999999 520.6276244999999 C 613.5994871999999 517.9743041999999 620.3156736999998 514.8123778999999 626.8203734999998 510.8515624999999 C 626.8203734999998 510.8515624999999 626.7138060999998 510.5711059999999 626.7138060999998 510.5711059999999 C 621.6873167999998 511.4479980999999 616.8936156999998 513.0331420999998 612.2196043999999 514.8687133999998 C 608.7413328999999 516.3123779999999 605.3691404999998 517.9998779999999 602.0364988999999 519.7525024999998 C 598.7571409999998 521.5913086999998 595.5600584999999 523.6551513999998 592.0590208999998 525.0380859999998 C 589.7420042999998 525.9887695999998 587.2631224999998 526.5804443999998 584.9031980999998 527.4299316999998 C 580.2056885 529.2557373 575.7769775 531.5893555 571.6099243 534.4733276 L 571.6099243 534.4733276 z M 507.2138672 562.4065552 L 507.3464356 562.6756591999999 C 508.5383301 562.4290771999999 509.6824341 562.0964356 510.8079224 561.7299804999999 C 514.1721802 560.6438598999999 517.5007325 559.4580077999999 520.6541748 557.8585204999999 C 522.7455444 556.7709351 524.7409667999999 555.4298706 526.8928222999999 554.4629517 C 530.1094360999999 552.9675904 533.6144409999999 552.18219 537.0130005 551.1859741999999 C 540.3921508999999 550.0887452 543.7499389999999 548.9173584999999 547.0022583 547.4799194999999 C 551.298584 545.4753419 555.4886475 543.1671143 559.2566528 540.1585084 C 559.2566528 540.1585084 559.1201172 539.8913574999999 559.1201172 539.8912965 C 552.2092896 541.8595581999999 545.7218627999999 544.3510742999999 539.3060912999999 547.4281007 C 534.9897460999999 549.3002931 530.9970093 552.0230713999999 526.5306396 553.5654907999999 C 524.3093261 554.3654786 521.9417724 554.8166504999999 519.6830444 555.5522461999999 C 515.1986084 557.1605835 510.9668579 559.4254761 507.2138672 562.4065552 L 507.2138672 562.4065552 z M 591.1799927 541.7688599 L 591.2907715 542.0476685000001 C 593.0031128 541.9805909000002 594.598938 541.5894165000001 596.1694946 541.1381226000001 C 599.4154052 540.3629151000001 602.0134277 538.2862549000001 604.7631836 536.569458 C 607.6024170000001 535.0020752 610.9798584 534.6192017000001 613.9493408000001 533.3849487000001 C 618.5817871 531.7551880000001 622.7871704 529.6055908000001 626.8190918 526.6363525000002 C 626.8190918 526.6363525000002 626.7150879000001 526.3549804000002 626.7150879000001 526.3549804000002 C 623.3457031 526.5702514000002 620.1867676 527.4960937000002 617.152771 528.6583862000001 C 614.9043579 529.5969238000001 612.7624512 530.7711792000001 610.6605225000001 532.0012207000001 C 608.6155396 533.3080444000001 606.6472168 534.8510742000001 604.3602295000001 535.6895752 C 602.8555908000001 536.2791748000001 601.1881714000001 536.5054932 599.6408081000001 536.9838867000001 C 596.546814 538.0719604 593.7426147 539.6551514 591.1799927 541.7688599 L 591.1799927 541.7688599 z M 507.2215576 578.1873779 L 507.3388061 578.4635009 C 510.5600585 577.7185668 513.6561889 576.6802978 516.7277221 575.5831297999999 C 522.9666747 573.5565794999999 528.6322631 570.2611694 534.4516601 567.330078 C 538.8771362 565.2443235999999 543.5950317 563.8364257 548.2087402000001 562.2193602 C 552.7940063000001 560.5166624 557.3436279000001 558.7121581 561.8094482000001 556.7193602 C 567.7154541000001 553.9559935 573.5262451000001 550.967285 579.0377807000001 547.3626707 C 579.0377807000001 547.3626707 578.9121703000001 547.0902097999999 578.9121703000001 547.0902097999999 C 569.4685668000001 549.9078977999999 560.467163 553.5864866999999 551.6486205000001 557.8723752999999 C 545.7235717000001 560.5588987 540.1610106 564.1062619999999 534.0725707000001 566.439636 C 531.0415038000001 567.6324460999999 527.8546142000001 568.4575193 524.7829589000002 569.5535885999999 C 518.6638184 571.8652344 512.7868042 574.7088013 507.2215576 578.1873779 L 507.2215576 578.1873779 z M 567.1451416 567.2133179 C 567.1451416 567.2133179 567.2227173 567.5031127999999 567.2226562 567.5029908 C 570.0135498 567.6326295 572.7113036999999 566.5974732 575.2651976999999 565.6350098 C 580.4635009 563.9143067 585.0318603 560.8905030000001 589.7608031999999 558.2427979 C 594.5856322999999 555.7506714 599.927063 554.449646 604.9121094 552.3250123 C 612.5181275 549.3588868 619.7789306999999 545.9010011 626.8216553 541.652588 L 626.7125244 541.3731691 C 621.3116455 542.4461671 616.1531372000001 544.2311403 611.1178589 546.2697145000001 C 606.1283569 548.4295045000001 601.2670287999999 550.8626710000001 596.5924072 553.6529542000001 C 594.2476196 555.0401002000001 591.8536377 556.3156129 589.3544922 557.3645021000001 C 585.5994263 558.9112550000001 581.560669 559.8052980000001 577.9358521 561.6915895000001 C 574.2234497 563.3448486 570.9064331 565.684082 567.1451416 567.2133179 L 567.1451416 567.2133179 z M 507.225769 593.2028809 L 507.3345336 593.4824219 C 509.5260619 593.2432862 511.5999145 592.6836548 513.6516723 592.067627 C 517.8485107 590.9682007 521.4469604 588.558899 525.1799315999999 586.4927369000001 C 528.0431517999999 585.0534669000001 531.2008056 584.2800904000001 534.2462767999999 583.2993775000001 C 537.2579956 582.2250977000001 540.2562254999999 581.0858155000001 543.1523437 579.7371216000001 C 546.9746093 577.8544312000001 550.7057494999999 575.7836914000002 554.1906127 573.1578369000001 C 554.1906127 573.1578369000001 554.0676268999999 572.8842163000002 554.0676268999999 572.8842163000002 C 547.6868285999999 574.2283325000002 541.7864989999999 576.5910644000002 536.0916136999999 579.6038818000002 C 532.2593383 581.4335937000002 528.8033446999999 584.1324463000002 524.7962646 585.6041870000001 C 522.807373 586.3637085000001 520.6626586 586.7530517000001 518.630371 587.3962402000002 C 514.5742188 588.8105469 510.7740479 590.723938 507.225769 593.2028809 L 507.225769 593.2028809 z M 589.3845825 572.5820312 C 589.3845825 572.5820312 589.512207 572.8535155999999 589.512207 572.8535155999999 C 591.2916259 572.6511229999999 592.9310302 572.1464232999999 594.548706 571.5985718 C 597.8908691 570.6326905 600.5737914 568.4414062999999 603.456726 566.6444091999999 C 606.434204 564.9963379 609.9623412 564.5819091999999 613.0964355 563.3431396999999 C 617.9774169 561.7107543999999 622.46875 559.6082763999999 626.8151855 556.6721191999999 L 626.7189941 556.3880004999999 C 623.1909179 556.5628661999999 619.8528442 557.4494628999998 616.6328735000001 558.5965575999999 C 614.2432861000001 559.5243529999999 611.9568481000001 560.7043456999999 609.7189941 561.9532470999999 C 607.5381469 563.2845458999999 605.4456787 564.8650512999999 603.0493774 565.7665405999999 C 601.4725341000001 566.4002685999999 599.7305297 566.6843261999999 598.1116333 567.2332763999999 C 594.8914185 568.4660034 591.9691162 570.2408447 589.3845825 572.5820312 L 589.3845825 572.5820312 z M 507.2192993 608.2227783 C 507.2192688 608.2227783 507.3410644 608.4969481999999 507.3410644 608.4969481999999 C 510.458435 607.7426146999999 513.446289 606.7079466999999 516.4134521 605.6252440999999 C 522.4476318 603.6322630999999 527.916748 600.4098509999999 533.5565795 597.5741576999999 C 537.8489989 595.5599364999999 542.4352416 594.2343138999998 546.918518 592.7032470999999 C 551.3754882 591.0853271999999 555.7971190999999 589.3670043999999 560.1353148999999 587.4539794999998 C 565.8709105999999 584.7956542999998 571.5102539 581.8969115999998 576.8272093999999 578.3558959999998 C 576.8272093999999 578.3558959999998 576.7006224999999 578.0839232999998 576.7006224999999 578.0839232999998 C 567.5430296999999 580.8095702999998 558.8104246999999 584.3180541999998 550.2446898999999 588.4352416999998 C 544.4884642999999 591.0083007999998 539.0899658 594.4449462999997 533.1798706 596.6826781999998 C 530.2379761 597.8289794999998 527.1421508999999 598.6133422999998 524.1621094 599.6752928999998 C 518.2293091 601.9226685 512.5452271 604.7360229 507.2192993 608.2227783 L 507.2192993 608.2227783 z M 544.5424194 607.5143433 L 544.6553344 607.7922973999999 C 548.3320922 606.9143066999999 551.8726196 605.6408081 555.3560180000001 604.2639161 C 558.8328246000001 602.8684082999999 562.2558593000001 601.3687135 565.5686034 599.6542969999999 C 568.8646849 597.8670044999999 572.0437011 596.0140382 575.5464476000001 594.657837 C 582.4495238000001 591.7780763 589.7736815000001 589.9561768 596.6949461 587.117859 C 607.1968992000001 583.0911255999999 617.2908934000001 578.1631471 626.8308104 572.1470337999999 C 626.8308104 572.1470337999999 626.7033690000001 571.8754273999999 626.7033690000001 571.8754273999999 C 619.5344237 574.1712038 612.6204833 576.9776003 605.7553710000001 579.8783570999999 C 598.9350585000001 582.9021607999999 592.1724242000001 586.0154420999999 585.4900512 589.3505860999999 C 578.7661132000001 592.9604493999999 571.5607909 594.6747437999999 564.5254516 597.3853150999998 C 557.6119995 600.2962036 551.0457153 603.7568359 544.5424194 607.5143433 L 544.5424194 607.5143433 z M 507.1977539 623.7156982 C 507.19772340000003 623.7156982 507.3625488 623.9663696 507.3625488 623.9663696 C 507.9959106 623.9174804 508.5649414 623.7924804 509.1097107 623.6380005 C 510.7207031 623.2091674999999 512.2891235 622.677002 513.6794434 621.7591553 C 514.5917969 621.1287232 515.4164429 620.2460937999999 516.4124145999999 619.7396851 C 518.4018554999999 618.666626 520.8692017 618.9126587 522.9830322999999 618.2401123 C 526.3614502999999 617.4533690999999 529.4382324999999 615.982727 531.8968506999998 613.3265381 C 531.8968506999998 613.3265381 531.7707520999999 613.0543213 531.7707520999999 613.0543213 C 529.3471070999999 613.1119385 527.1996460999999 613.5953369 525.0723877999999 614.2461548 C 523.4996948999999 614.7971192 521.9783936999999 615.5578613 520.5048218999999 616.3578491 C 519.0634157 617.244751 517.6871338999999 618.3900146 516.0468140999999 618.8436889 C 514.9754029999999 619.1855468 513.7494507999999 619.1903685999999 512.6289673999999 619.487976 C 510.4042969 620.2236328 508.4674683 621.6831665 507.1977539 623.7156982 L 507.1977539 623.7156982 z M 612.1175537 593.9866333 L 612.2369385000001 594.2618408 C 613.0698853 594.5169678 613.7850952000001 594.5006103 614.4658203 594.4048462 C 615.1343384 594.2807617 615.7907104 594.1289062999999 616.3225708 593.6898804 C 616.8530273 593.2476197 617.269043 592.5415039 617.8410034 592.1948853 C 618.9785766 591.4333497 620.6246947999999 591.9089966 621.8601074 591.4695435 C 623.9658813 591.0644532 625.7042845999999 589.8199463 626.8267821999999 587.9331665 C 626.8267821999999 587.9331665 626.7073973999999 587.657959 626.7073973999999 587.657959 C 623.8478392999999 586.9950562 621.0845946999999 588.1107788 619.1453245999999 590.2064819 C 618.6494139999999 590.7283325 618.1064451999998 591.1417236 617.4558714999998 591.3070678 C 616.8120115999998 591.4878539 616.0121458999998 591.309082 615.3267820999998 591.394226 C 613.8982544 591.7090454 612.8501587 592.6317139 612.1175537 593.9866333 L 612.1175537 593.9866333 z M 507.2150269 639.4902344 C 507.2149964 639.4902344 507.345337 639.7604981 507.345337 639.7605590999999 C 511.36859139999996 638.4654540999999 515.27594 636.9152221999999 519.1713867999999 635.3111571999999 C 527.0490113 632.3170776 534.3787232 628.1707152999999 541.9220581999999 624.4747924999999 C 549.5497436999999 620.9304809999999 557.7117311 618.6640014999999 565.4992066 615.5180664 C 577.3114014 611.0255737 588.8408814 605.9230346999999 599.8510132 599.6344604 C 599.8510132 599.6344604 599.7318115 599.3591308 599.7318115 599.3591308 C 591.6377563000001 601.8117065 583.7684326000001 604.7527465000001 575.9647217 607.8712158 C 570.1411133 610.2810058 564.3843994 612.8651732999999 558.6724854 615.534729 C 552.9972535 618.2880249 547.4077149 621.2663574 541.5375977 623.5812377999999 C 537.6444703 625.1674804999999 533.5950318 626.3999633999999 529.6697388 627.9279785 C 521.8651733 631.1190796 514.3217163 634.9212036 507.2150269 639.4902344 L 507.2150269 639.4902344 z M 507.220459 654.5049438 C 507.2204285 654.5049438 507.3398438 654.7801512999999 507.3398438 654.7801512999999 C 512.5463257 653.1458739999999 517.6254273 651.2178954 522.6785279 649.2301024999999 C 532.8718872999999 645.4210204999999 542.4946289999999 640.3488159 552.2813110999999 635.6525879 C 562.1438598999999 631.1080321999999 572.5278321 627.7743529999999 582.5236816999999 623.5496826 C 597.6411743999998 617.4416504 612.4525146999999 610.7086792 626.8267822999999 602.9503784 C 626.8267822999999 602.9503784 626.7073974999998 602.6751709 626.7073974999998 602.6751709 C 611.2209472999998 607.8695679 596.1845703999999 614.0835571 581.3952636999999 620.9482422 C 571.4805907999998 625.3601074 561.9513549999999 630.6642456 551.8942260999999 634.7601929 C 546.8820800999998 636.8424683 541.7086181999998 638.5528565 536.6550292999999 640.5396118 C 526.586731 644.6381226 516.7478638 649.241394 507.220459 654.5049438 L 507.220459 654.5049438 z M 555.3245239 495.5578918 C 555.3245239 495.5578918 555.4500122000001 495.8303833 555.4500122000001 495.8303833 C 558.6348877 494.9971008 561.6867676 493.8852539 564.7166748000001 492.7250366 C 570.8773804000001 490.57751460000003 576.4583130000001 487.21109010000004 582.2259521000001 484.2489624 C 588.0820922 481.4455566 594.4607543000001 479.8734741 600.4608764000001 477.4304199 C 609.5998535000001 473.9891968 618.4282836000001 469.95361330000003 626.8257446000001 464.869812 L 626.7084350000001 464.59368900000004 C 620.3633422000001 466.23999030000004 614.2584838000001 468.4480591 608.2320556000001 470.84838870000004 C 603.7451171000001 472.7283631 599.3284911000001 474.7833863 594.9591064000001 476.92718510000003 C 590.6295776000001 479.15158090000006 586.3787841000001 481.5923462 581.8402099000001 483.36141970000006 C 578.8311767000001 484.57290650000004 575.6652221 485.42855840000004 572.6193847000001 486.56411750000007 C 566.5593262 488.9592285 560.7593994 491.9257507 555.3245239 495.5578918 L 555.3245239 495.5578918 z M 507.2185059 516.4248047 C 507.2185059 516.4248047 507.3418274 516.6983031999999 507.341858 516.6983031999999 C 509.0381471 516.5692137999999 510.5934449 516.1507568 512.1376954 515.7054443 C 515.3324586 514.949707 517.9441529 512.9804077 520.7336427 511.40447989999996 C 523.6224366 509.97171009999994 526.9953615000001 509.77301019999993 529.98938 508.62557979999997 C 534.6503296999999 507.12731929999995 538.980652 504.8695373 542.5859987 501.4100036 C 542.5859987 501.4100036 542.4464723 501.1444396 542.4464723 501.1444396 C 539.1691896 501.7730102 536.1719972 502.8019408 533.2059938 503.9571837 C 530.2724 505.23791489999996 527.4110719 506.65603619999996 524.6915895 508.38925159999997 C 523.3154298 509.25048819999995 521.8924562 510.0021056 520.3697510999999 510.50775139999996 C 518.8521119 511.0257263 517.1865846 511.18402089999995 515.6284180999999 511.61627189999996 C 512.5217285 512.6134033 509.6703491 514.2088623 507.2185059 516.4248047 L 507.2185059 516.4248047 z" stroke-linecap="round"/>
</g>
		<g transform="matrix(0.612421883691811 0 0 0.6124218836918109 -36.588207915126645 17.093612824863214)">
<path style="stroke: none; stroke-width: 1; stroke-dasharray: none; stroke-linecap: butt; stroke-dashoffset: 0; stroke-linejoin: miter; stroke-miterlimit: 4; fill: rgb(60,21,127); fill-rule: nonzero; opacity: 1;" paint-order="stroke" transform=" translate(-447.5273743, -552.410553)" d="M 387.8529663 602.6751709 C 398.2060242 606.0350952 408.289917 610.0737305 418.16186519999997 614.6246948 C 423.06549069999994 616.9571533000001 427.84930419999995 619.5658569000001 432.79437249999995 621.8027344000001 C 442.65695179999994 626.3473511000001 453.04092399999996 629.6809693000001 463.03674309999997 633.9057007000001 C 478.15429679999994 640.0136109000001 492.96551509999995 646.7467652000001 507.33984369999996 654.5049439000002 C 507.33984369999996 654.5049439000002 507.22042839999995 654.7801514000001 507.2204589 654.7801514000001 C 491.73410029999997 649.5858155000001 476.69757069999997 643.3718262000001 461.9083556 636.5070801000002 C 451.99371329999997 632.0952759000002 442.4644469 626.7911377000001 432.407318 622.6951294000002 C 422.2912902 618.7581787000001 412.01275619999996 615.1978149000001 402.26660139999996 610.3577881000001 C 397.3624571 608.0264282 392.4843443 605.6352539000001 387.73358139999993 602.9503784000001 C 387.733551 602.9503784 387.8529663 602.6751709 387.8529663 602.6751709 L 387.8529663 602.6751709 z M 482.7958984 613.824585 L 482.6571655 614.0905762 C 483.3900757 615.1046143 484.28576660000004 615.8500366 485.2275085 616.4974366 C 487.2225341 618.0513306 489.3649292 618.0749512 491.6650695 618.5837403 C 493.8303832 619.218567 495.4924926 621.0559083 497.5143737 621.980774 C 500.53057850000005 623.6653443 503.6343383 624.6031495 507.2169799 624.7442017 L 507.3433227 624.4721069999999 C 505.720642 622.6539306999999 503.77349849999996 621.4454956999999 501.7583618 620.4556275 C 499.67483519999996 619.5790406 497.51870729999996 618.9439698 495.25585939999996 618.6487427 C 494.11816409999994 618.4896239999999 493.02453619999994 618.2173462 492.03759769999994 617.6905518 C 491.04431159999996 617.1777955 490.21044929999994 616.2985229999999 489.2755126999999 615.6777955 C 487.3194275 614.5195312 485.0842285 613.9029541 482.7958984 613.824585 L 482.7958984 613.824585 z M 387.8578491 572.6430054 C 387.85781860000003 572.6430054 387.7286682 572.9137574 387.72863770000004 572.9137574 C 390.86846920000005 575.0361329 394.16925050000003 576.8450318 397.51239010000006 578.5612794 C 404.14703370000007 582.1602784 411.3635864000001 584.3579103 418.4297485000001 586.8723146 C 425.43682860000007 589.5419923 431.95452880000005 593.3862917 438.82653810000005 596.3582765 C 449.05834960000004 601.0734254 459.44573980000007 605.1841432 470.1970825000001 608.6860963 L 470.3245239000001 608.4144899 C 463.9472656000001 604.3572389000001 457.2028198000001 601.0090944 450.35678100000007 597.938904 C 443.45278930000006 594.9929201 436.45056150000005 592.3037111 429.30700680000007 589.9835207 C 425.73895260000006 588.8103639999999 422.2211303000001 587.5147707 418.80584710000005 585.975281 C 415.38488760000007 584.4485476 412.13024900000005 582.5346681999999 408.7689819 580.8842165 C 401.9884338 577.6836548 395.0175476 574.8967285 387.8578491 572.6430054 L 387.8578491 572.6430054 z M 418.4512939 570.8962402 C 418.4512939 570.8962402 418.3327636 571.1718139 418.3327636 571.1718139 C 421.8101806 573.3043212 425.4144286 575.1429443 429.0444946 576.9216308 C 436.245636 580.6578369 443.9697876 583.1096801 451.533844 585.9400634 C 459.04180909999997 588.9304198 466.0270081 593.1310424 473.39154049999996 596.4365844 C 484.35803219999997 601.6431274 495.57135009999996 606.1983642 507.2216797 609.7291259 C 507.2216492 609.7291259 507.3386231 609.4528197 507.3386231 609.4528197 C 500.3075562 605.3511351 493.0366211 601.8191527 485.6839295 598.479309 C 478.274231 595.2595213999999 470.79098519999997 592.2252807 463.1584473 589.5571288 C 459.3444214 588.2097167 455.579834 586.7457885 451.9163208 585.0457152 C 448.2458496 583.3616942 444.73498539999997 581.3051146 441.105835 579.5255126000001 C 433.7801819 576.0787964 426.2466125 573.1478882 418.4512939 570.8962402 L 418.4512939 570.8962402 z M 387.8589478 557.6263428 C 387.8589478 557.6263428 387.7275391 557.8960572 387.7275391 557.8960572 C 388.552002 558.9224854 389.5254517 559.6763917 390.5413208 560.3372193 C 392.6064758 561.8806153 395.01321409999997 561.9939576 397.3909607 562.5280152 C 399.6913452 563.2087403 401.4850464 565.1027222 403.6316528 566.0943604 C 406.8310547 567.8775025 410.10943599999996 568.9439087000001 413.8877563 569.2435303 C 413.8877563 569.2435303 414.01889029999995 568.9736939 414.0188598 568.9736939 C 412.29766839999996 567.0637817999999 410.23333729999996 565.7626954 408.0906677 564.6912232 C 405.88061519999997 563.7332764 403.5871582 563.02594 401.1849365 562.6714478 C 399.97845459999996 562.4832764 398.81713859999996 562.1844483 397.7600097 561.6334229 C 396.6967162 561.0967408 395.7890014 560.1939698 394.7783508 559.5527344000001 C 392.6763306 558.3565674 390.292511 557.7060547 387.8589478 557.6263428 L 387.8589478 557.6263428 z M 452.2402344 570.0716553 C 452.24020390000004 570.0716553 452.12301640000004 570.3477783 452.1229859 570.3477783 C 454.2004395 571.8560791 456.3912964 573.0795898 458.60314950000003 574.2571411 C 462.9704896 576.8129883 467.85699470000003 578.1000366000001 472.57208260000004 579.7831421 C 476.07315070000004 581.1660155999999 479.27023320000006 583.2298584 482.5496522 585.0686645999999 C 485.88220220000005 586.8212280999999 489.25442510000005 588.5087280999999 492.7327882 589.9523315999999 C 497.40667740000004 591.7879638999999 502.2003785 593.3731079999999 507.22686780000004 594.2500000999999 C 507.22686780000004 594.2500000999999 507.33343520000005 593.9695435999998 507.33343520000005 593.9695435999998 C 500.8285829000001 590.0087891999998 494.11264050000005 586.8468628999998 487.04360980000007 584.1935425999999 C 482.4332277000001 582.2729492999999 477.43518080000007 581.1860352999998 472.97137470000007 578.9014893999998 C 470.72906510000007 577.7862549999999 468.64697280000007 576.3154297999998 466.4429934000001 575.1090088999998 C 461.9554749 572.8067627 457.2130432 571.0739746 452.2402344 570.0716553 L 452.2402344 570.0716553 z M 387.8595581 542.1454468 C 387.85952760000004 542.1454468 387.7269592 542.4145507999999 387.72692870000003 542.4145507999999 C 389.5962524 543.9629517 391.6345825 545.2045898999999 393.71630860000005 546.3526000999999 C 397.8337708 548.8314818999999 402.51834110000004 549.8775023999999 407.0437317 551.2556762999999 C 411.5101318 552.7980956999999 415.5028687 555.5207519999999 419.81915280000004 557.3930663999998 C 426.2348327 560.4699706999999 432.7226562 562.9617309999999 439.63323970000005 564.9298095999999 C 439.63320920000007 564.9298095999999 439.76971430000003 564.6626586999998 439.76971430000003 564.6626586999998 C 436.00170890000004 561.6539916999999 431.81164550000005 559.3458251999998 427.5153503 557.3411864999998 C 424.263031 555.9036864999998 420.90530390000004 554.7324828999998 417.52612300000004 553.6351317999998 C 414.1275939 552.6389769999998 410.6225585 551.8535155999998 407.40588370000006 550.3582762999998 C 405.25402820000005 549.3912962999998 403.2586059000001 548.0502318999999 401.1672973000001 546.9625242999998 C 396.9196777 544.8881836 392.4645691 543.2615967 387.8595581 542.1454468 L 387.8595581 542.1454468 z M 471.803833 562.7734985 C 471.803833 562.7734985 471.6930847 563.0523071 471.6930542 563.0523071 C 472.9771118 564.1867675 474.36743160000003 565.0219116 475.7683411 565.8324585 C 478.5421753 567.6307373000001 481.7926331 568.1707153 484.8733521 569.1315918 C 487.92547609999997 570.2669678 490.38311769999996 572.5872192 493.2939454 574.0198364 C 497.5988465 576.4278564 502.2095643 578.0924072 507.2281495 578.4661255 C 507.228119 578.4661255 507.3321534 578.1847534 507.3321534 578.1847534 C 504.64514169999995 576.1616821 501.82983409999997 574.6323851999999 498.9416505 573.2235107 C 495.9840089 571.9227905 492.9679872 570.7821655 489.817505 569.968872 C 488.2354127 569.5465087 486.7008668 569.0193481 485.2762452 568.2517089 C 483.8458253 567.4971923 482.5729371 566.390808 481.1731873 565.5516967000001 C 478.2843323 563.9754028 475.1278687 563.005127 471.803833 562.7734985 L 471.803833 562.7734985 z M 387.8518677 526.357605 C 387.8518677 526.357605 387.73464970000003 526.633728 387.7346192 526.633728 C 390.508606 528.4328613 393.4086304 529.9364624 396.3344422 531.378479 C 402.13055430000003 534.4476318 408.4398499 536.2199097 414.58560190000003 538.3815308 C 420.6741334 540.7148437999999 426.2367249 544.2622680999999 432.16168220000003 546.9487915 C 440.98025520000004 551.2345581 449.98178110000003 554.9133300999999 459.42523200000005 557.7308959999999 C 459.42526250000003 557.7308959999999 459.5508424000001 557.4584960999999 459.5508424000001 557.4584960999999 C 454.0393068000001 553.8538207999999 448.22851570000006 550.8651732999999 442.3225404000001 548.1017456 C 437.8566591000001 546.1090088 433.3070680000001 544.3044434 428.7218324000001 542.6018065999999 C 424.1081239000001 540.9847411999999 419.3902589000001 539.5768431999999 414.9647218000001 537.4911498999999 C 412.0030519000001 536.1338500999999 409.1951906000001 534.4136962999999 406.2705079000001 532.9682006999999 C 400.3530273 530.1799316 394.2201233 527.9441528 387.8518677 526.357605 L 387.8518677 526.357605 z M 447.7357788 537.3180542 C 447.73580929999997 537.3180542 447.6582031 537.6078491 447.6582031 537.6078491 C 448.8760071 538.2074584999999 450.14431759999997 538.5910643999999 451.2743835 539.3035278 C 454.741333 541.3712158 458.4034729 543.2695923 462.1721801 544.746643 C 464.7098998 545.7055052999999 467.3719482 546.4003295 469.8676147 547.4566649999999 C 472.36669919999997 548.5055541999999 474.7606811 549.7810057999999 477.1054687 551.1682738999999 C 481.7800598 553.9584349999999 486.64147940000004 556.3915404999999 491.6309814 558.5513915999999 C 496.6661987 560.5899657999998 501.824768 562.3749389999999 507.2256469 563.4479979999999 C 507.2256469 563.4479979999999 507.3346862 563.1685179999998 507.3347167 563.1685179999998 C 500.29187 558.9200438999999 493.0312804 555.4623411999999 485.4251403 552.4961546999998 C 480.4400939 550.3713377999998 475.0987243 549.0706175999998 470.2737121 546.5785521999998 C 465.5446472 543.9304198999997 460.9769897 540.9070433999998 455.7783508 539.1859740999997 C 453.2234802 538.2233276 450.5280151 537.1890259 447.7357788 537.3180542 L 447.7357788 537.3180542 z M 387.8475952 511.3386841 L 387.7388916 511.6182862 C 389.5114746 512.9285889 391.3938599 513.9380494 393.2875671 514.918274 C 397.0390625 517.0507203 401.2575988 517.9187012 405.30935669999997 519.2169801 C 409.31631469999996 520.6887208 412.77255249999996 523.3875734 416.60464479999996 525.2172853 C 422.29956059999995 528.2300415999999 428.2000427 530.5928957 434.58068849999995 531.9369508 C 434.58071899999993 531.9369508 434.70370489999993 531.6633302 434.70373539999997 531.6633302 C 431.2188111 529.0374757000001 427.487732 526.966736 423.66546639999996 525.0839235 C 420.76922619999993 523.7352907 417.7711793 522.5961305 414.75936899999994 521.5217286999999 C 411.71392829999996 520.5410158 408.55624399999994 519.7676392999999 405.69299329999996 518.3284914 C 403.7738649 517.4022219 402.00292979999995 516.1236574 400.11175549999996 515.1173097999999 C 396.2504578 513.2150879 392.1447449 511.9154663 387.8475952 511.3386841 L 387.8475952 511.3386841 z M 470.0252686 531.9675903 C 470.0252686 531.9675903 469.8976136 532.2391357 469.8976441 532.2391357 C 471.1868287 533.4819336 472.6140137 534.4268188 474.0607606 535.3330078 C 476.9248963 537.3126221 480.32760629999996 538.0082397 483.5624085 539.0546265 C 485.95867930000003 539.9561768000001 488.0512391 541.5364991 490.23211680000003 542.867981 C 492.4699403 544.1166992999999 494.7564393 545.296814 497.1459962 546.2244873 C 500.36590590000003 547.3717041 503.7040406 548.2582397 507.2320558 548.4331665 C 507.2320558 548.4331665 507.3282167 548.1489868 507.3282472 548.1489868 C 502.981537 545.2127685 498.4906312 543.1104736 493.60946670000004 541.4779662999999 C 490.47534190000005 540.2391968 486.94741840000006 539.8248291 483.96978770000004 538.1767577999999 C 482.47106940000003 537.3799437999999 481.14184580000006 536.2241820999999 479.6934815 535.3250122 C 476.7013245 533.6207886 473.4751587 532.467041 470.0252686 531.9675903 L 470.0252686 531.9675903 z M 387.854126 496.3241882 C 387.8541565 496.3241882 387.7323303 496.5983581 387.7323609 496.5983581 C 390.3862916 498.3998413 393.1788941 499.900238 396.002472 501.32882689999997 C 401.5960999 504.3654175 407.7243348 506.0709839 413.6929017 508.13842769999997 C 419.6030579 510.37619019999994 425.001587 513.8128661999999 430.7577821 516.3859252999999 C 439.3233949 520.5030518 448.0562135 524.0116576999999 457.2136842 526.7372436999999 L 457.3403321 526.4652709999999 C 452.02337650000004 522.9242553999999 446.3839722 520.0255126999999 440.6484071 517.3671264999999 C 436.3102418 515.4541016 431.88858039999997 513.7358399 427.4316407 512.1178588999999 C 422.9483643 510.58685299999985 418.3621217 509.2612304999999 414.0696412 507.2470092999999 C 411.1973878 505.93646239999987 408.4818726 504.2575072999999 405.65390019999995 502.8483276999999 C 399.9291687 500.1268311 394.009552 497.9309387 387.854126 496.3241882 L 387.854126 496.3241882 z M 425.168396 497.0288391 C 425.168396 497.0288391 425.05551149999997 497.3067932 425.055481 497.3067932 C 428.29418949999996 499.2429199 431.5946045 500.9629822 434.9083252 502.6742248 C 441.51440429999997 506.2247009 448.5139771 508.9598388 455.7139893 511.07257069999997 C 462.77993779999997 513.4913938999999 469.2866822 517.2994994 476.09597779999996 520.3117063999999 C 486.249939 525.0880126 496.4942627 529.4601438999999 507.21643069999993 532.9456786 C 507.21640019999995 532.9456786 507.34387209999994 532.6740722 507.34387209999994 532.6740722 C 500.99371339999993 528.6306152 494.3476562999999 525.1835937 487.5683288999999 522.0188598 C 480.7297363999999 518.9753417 473.76681519999994 516.1995238999999 466.6192626999999 513.9476928 C 463.0464477999999 512.8103637 459.51831059999995 511.57974240000004 456.0595397999999 510.16320790000003 C 452.5566710999999 508.8070372 449.3780211999999 506.95425400000005 446.08166499999993 505.16683950000004 C 439.3965149 501.8163757 432.4543762 498.8672485 425.168396 497.0288391 L 425.168396 497.0288391 z M 387.8756104 480.8547363 L 387.71087650000004 481.10543820000004 C 388.34442140000004 482.18746940000005 389.1957398 483.01144410000006 390.11230470000004 483.72402950000003 C 391.048645 484.3980712 392.0269165 485.02398680000005 393.14208990000003 485.33306880000004 C 394.26257330000004 485.6307373 395.48846440000005 485.63555900000006 396.55990610000003 485.97744750000004 C 398.7470094 486.60195920000007 400.43225110000003 488.36633300000005 402.51965340000004 489.24325560000005 C 405.5963441 490.8258362 408.70297250000004 491.63183590000006 412.28381360000003 491.76681520000005 C 412.2838441 491.76681520000005 412.4098817 491.49459840000003 412.4099122 491.49459840000003 C 410.7777711 489.673584 408.7699586 488.5032959 406.7164308 487.5770264 C 404.60028090000003 486.76794440000003 402.4258119 486.21438600000005 400.1541749 485.9802857 C 399.0152589 485.8510132 397.9162599 485.5974122 396.9255372 485.08142100000003 C 395.9295045 484.57504280000006 395.10485850000003 483.6924134 394.192566 483.0618592 C 392.2797241 481.8671875 390.1308594 481.1556702 387.8756104 480.8547363 L 387.8756104 480.8547363 z M 492.75 510.5592957 L 492.6306152 510.8345337 C 493.01348870000004 511.6170654 493.5140991 512.1281128 494.0491943 512.5596924 C 494.5964965 512.9630127 495.1559448 513.3385010000001 495.83990470000003 513.4268799 C 496.52526850000004 513.5120239 497.3250732 513.333313 497.96896350000003 513.5140991000001 C 499.302246 513.8243408000001 500.0797423 515.3512573 501.24475090000004 515.9530029000001 C 502.97943110000006 517.2138672000001 505.07583610000006 517.6326904000001 507.22045890000004 517.1631469000001 C 507.22045890000004 517.1631469000001 507.3398437 516.8879394000002 507.3398131 516.8879394000002 C 505.8700255 514.3471069000002 503.1673277 513.0918579000002 500.3120726 513.1077880000001 C 499.5921629 513.1022948000001 498.9193114 512.9882812000002 498.3540648 512.6262206000001 C 497.7821044 512.2796019000001 497.3660887 511.57351670000014 496.8356627 511.1311950000001 C 495.6296692 510.3033447 494.2399597 510.1684875 492.75 510.5592957 L 492.75 510.5592957 z M 387.8583984 465.0606384 L 387.7280883 465.3308716 C 391.26916500000004 467.6653443 394.9700927 469.6874695 398.71243280000004 471.62149050000005 C 406.1430053 475.65393070000005 414.17025750000005 478.2970581000001 422.05062860000004 481.23992920000006 C 427.92080680000004 483.5547791000001 433.51034540000006 486.5331421000001 439.18557730000003 489.2863770000001 C 444.89749140000004 491.9559632000001 450.6541442 494.5401917000001 456.4777831 496.9498902000001 C 464.281494 500.0683594000001 472.1508178 503.00943000000007 480.2449035 505.4619752000001 C 480.244934 505.4619752000001 480.36407460000004 505.1866761000001 480.36410520000004 505.1866456000001 C 469.3539428 498.8981019000001 457.82452390000003 493.7955934000001 446.0122986 489.3031007000001 C 438.2247315 486.1572267000001 430.0629273 483.89065560000006 422.4351807 480.34634410000007 C 418.6103516 478.60607920000007 414.9567871 476.47790540000005 411.19442749999996 474.6100160000001 C 403.6124878 470.9717102 395.8364563 467.7433167 387.8583984 465.0606384 L 387.8583984 465.0606384 z M 387.8529663 450.0409546 C 387.8529358 450.0409546 387.7335815 450.31616210000004 387.7335815 450.31616210000004 C 392.4843139 453.00100710000004 397.36248770000003 455.39221190000006 402.26660150000004 457.72357180000006 C 412.01275630000004 462.56359870000006 422.2912597 466.1239929000001 432.40731810000005 470.06091310000005 C 442.46444700000006 474.15692140000004 451.99371340000005 479.4609985000001 461.9083557000001 483.8729248000001 C 476.6976013000001 490.7375793000001 491.7341003000001 496.9515686000001 507.22045900000006 502.14596560000007 C 507.22045900000006 502.14596560000007 507.33984380000004 501.87072760000007 507.33984380000004 501.87069700000006 C 492.9655152 494.11248780000005 478.1542969 487.3794250000001 463.03674320000005 481.27151490000006 C 453.0409546 477.04678350000006 442.6569825 473.71310430000005 432.79437260000003 469.16854860000007 C 427.8493042 466.93167120000004 423.0654908 464.32290650000004 418.16186530000004 461.9905090000001 C 408.289917 457.4395752 398.2060242 453.4009094 387.8529663 450.0409546 L 387.8529663 450.0409546 z M 435.9630737 608.9907227 C 435.9631042 608.9907227 435.8375854 609.2632447 435.8375854 609.2632447 C 438.5446777 611.1372071 441.39416500000004 612.711731 444.2756958 614.2158204 C 449.98400879999997 617.4017944999999 456.2471008 619.261963 462.353302 621.4597779 C 466.8918152 623.2288209 471.1426697 625.6695556999999 475.47222899999997 627.8939819999999 C 479.84158319999995 630.0377808 484.25820919999995 632.0927125 488.7451172 633.9727174 C 494.7715454 636.373108 500.8764038 638.5811769 507.22149659999997 640.2274170999999 C 507.22149659999997 640.2274170999999 507.3387757 639.9512940999999 507.33880619999996 639.9512940999999 C 498.9412842 634.8674927999999 490.11297609999997 630.8319703999999 480.973938 627.3907472 C 474.97384639999996 624.947632 468.5951538 623.3756105 462.7390137 620.5721437 C 459.802063 619.1974488999999 457.0283814 617.4523927 454.1409912 615.9724732999999 C 448.2962341 613.1065063 442.2529907 610.7538452 435.9630737 608.9907227 L 435.9630737 608.9907227 z M 387.8549194 588.1228638 C 387.8549194 588.1228638 387.73156730000005 588.3963013 387.73156730000005 588.3963013 C 388.95770260000006 589.5750733 390.33215320000005 590.447937 391.7312011000001 591.2628784 C 394.5082397000001 593.0594482 397.7739867000001 593.5007934 400.88284290000007 594.3133545 C 403.9448851000001 595.2948607999999 406.50820910000004 597.4868164 409.40588370000006 598.8106078999999 C 413.7148131000001 601.0772094999999 418.09146110000006 602.6905516999999 422.95953360000004 603.6766968 L 423.09906000000007 603.4111327999999 C 420.70568840000004 601.0639647999999 417.90515130000006 599.3657225999999 415.01434320000004 597.9332885999999 C 412.06054680000005 596.6157836999998 409.0015258 595.5779418999998 405.82464590000006 594.9108886999999 C 404.23583970000004 594.5640258999998 402.6907348000001 594.1150512999999 401.2467040000001 593.4166259999998 C 399.79736320000006 592.7312621999998 398.4981688000001 591.6807861999998 397.0966491000001 590.8917846999998 C 394.1975098 589.4124146 391.1339417 588.4832764 387.8549194 588.1228638 L 387.8549194 588.1228638 z" stroke-linecap="round"/>
</g>
</g>
</g>
<g transform="matrix(1.9211538461538462 0 0 1.9211538461538462 640.5302384615385 645.8712423144643)" id="text-logo">
<g style="" paint-order="stroke">
		<g transform="matrix(1 0 0 1 0 0)" id="text-logo-path-0">
<linearGradient id="SVGID_40896" gradientUnits="userSpaceOnUse" gradientTransform="matrix(1 0 0 1 2.930000000000007 -35.23)" x1="0" y1="0" x2="0" y2="54">
<stop offset="0%" style="stop-color:rgb(101,121,155);stop-opacity: 1"/>
<stop offset="100%" style="stop-color:rgb(94,37,99);stop-opacity: 1"/>
</linearGradient>
<path style="stroke: none; stroke-width: 0; stroke-dasharray: none; stroke-linecap: butt; stroke-dashoffset: 0; stroke-linejoin: miter; stroke-miterlimit: 4; fill: url(#SVGID_40896); fill-rule: nonzero; opacity: 1;" paint-order="stroke" transform=" translate(-125.855, 17.305)" d="M 21.84 -32.02 L 21.46 -31.3 Q 20.11 -31.87 17.95 -32.47 Q 15.79 -33.07 13.54 -33.07 L 13.54 -33.07 Q 9.84 -33.07 7.61 -31.18 Q 5.38 -29.28 5.38 -26.5 L 5.38 -26.5 Q 5.38 -24.38 6.6 -23.02 Q 7.82 -21.65 9.77 -20.71 Q 11.71 -19.78 13.97 -18.91 L 13.97 -18.91 Q 15.7 -18.29 17.38 -17.52 Q 19.06 -16.75 20.45 -15.67 Q 21.84 -14.59 22.66 -12.98 Q 23.47 -11.38 23.47 -9.07 L 23.47 -9.07 Q 23.47 -6.14 22.13 -4.03 Q 20.78 -1.92 18.48 -0.77 Q 16.18 0.38 13.3 0.38 L 13.3 0.38 Q 10.56 0.38 8.45 -0.31 Q 6.34 -1.01 4.94 -1.82 Q 3.55 -2.64 2.93 -3.02 L 2.93 -3.02 L 3.41 -3.89 Q 4.42 -3.17 5.95 -2.38 Q 7.49 -1.58 9.34 -1.03 Q 11.18 -0.48 13.1 -0.48 L 13.1 -0.48 Q 15.46 -0.48 17.62 -1.42 Q 19.78 -2.35 21.14 -4.25 Q 22.51 -6.14 22.51 -9.02 L 22.51 -9.02 Q 22.51 -11.86 21.17 -13.56 Q 19.82 -15.26 17.74 -16.3 Q 15.65 -17.33 13.34 -18.19 L 13.34 -18.19 Q 11.66 -18.77 10.08 -19.46 Q 8.5 -20.16 7.22 -21.07 Q 5.95 -21.98 5.18 -23.28 Q 4.42 -24.58 4.42 -26.35 L 4.42 -26.35 Q 4.42 -28.61 5.62 -30.29 Q 6.82 -31.97 8.86 -32.93 Q 10.9 -33.89 13.44 -33.89 L 13.44 -33.89 Q 15.26 -33.89 17.69 -33.36 Q 20.11 -32.83 21.84 -32.02 L 21.84 -32.02 Z M 65.04 -2.88 L 65.62 -2.06 Q 64.37 -1.34 62.95 -0.79 Q 61.54 -0.24 59.95 0.07 Q 58.37 0.38 56.64 0.38 L 56.64 0.38 Q 52.8 0.38 49.66 -0.96 Q 46.51 -2.3 44.26 -4.66 Q 42 -7.01 40.8 -10.1 Q 39.6 -13.2 39.6 -16.66 L 39.6 -16.66 Q 39.6 -20.3 40.92 -23.47 Q 42.24 -26.64 44.59 -29.02 Q 46.94 -31.39 50.06 -32.74 Q 53.18 -34.08 56.74 -34.08 L 56.74 -34.08 Q 59.18 -34.08 61.42 -33.43 Q 63.65 -32.78 65.62 -31.63 L 65.62 -31.63 L 65.14 -30.82 Q 63.31 -31.92 61.18 -32.54 Q 59.04 -33.17 56.74 -33.17 L 56.74 -33.17 Q 53.42 -33.17 50.47 -31.9 Q 47.52 -30.62 45.31 -28.34 Q 43.1 -26.06 41.83 -23.06 Q 40.56 -20.06 40.56 -16.61 L 40.56 -16.61 Q 40.56 -13.39 41.69 -10.46 Q 42.82 -7.54 44.93 -5.3 Q 47.04 -3.07 49.99 -1.8 Q 52.94 -0.53 56.64 -0.53 L 56.64 -0.53 Q 58.99 -0.53 61.1 -1.18 Q 63.22 -1.82 65.04 -2.88 L 65.04 -2.88 Z M 82.75 0 L 81.79 0 L 95.76 -35.23 L 95.86 -35.23 L 109.82 0 L 108.77 0 L 95.52 -33.65 L 96.14 -33.79 L 82.75 0 Z M 87.5 -12.62 L 87.6 -13.49 L 104.06 -13.49 L 104.16 -12.62 L 87.5 -12.62 Z M 155.71 0.62 L 155.66 0.62 L 128.78 -31.97 L 129.02 -32.45 L 129.07 0 L 128.11 0 L 128.11 -34.22 L 128.16 -34.22 L 155.28 -1.3 L 154.8 -1.34 L 154.8 -33.7 L 155.71 -33.7 L 155.71 0.62 Z M 194.69 0 L 196.22 -0.91 L 209.66 -0.91 L 209.66 0 L 194.69 0 Z M 174.58 -16.8 L 174.58 -16.8 Q 174.58 -20.35 175.92 -23.5 Q 177.26 -26.64 179.62 -29.02 Q 181.97 -31.39 185.09 -32.74 Q 188.21 -34.08 191.76 -34.08 L 191.76 -34.08 Q 195.31 -34.08 198.43 -32.74 Q 201.55 -31.39 203.93 -29.02 Q 206.3 -26.64 207.67 -23.5 Q 209.04 -20.35 209.04 -16.8 L 209.04 -16.8 Q 209.04 -13.25 207.67 -10.13 Q 206.3 -7.01 203.93 -4.66 Q 201.55 -2.3 198.43 -0.96 Q 195.31 0.38 191.76 0.38 L 191.76 0.38 Q 188.21 0.38 185.09 -0.89 Q 181.97 -2.16 179.62 -4.46 Q 177.26 -6.77 175.92 -9.91 Q 174.58 -13.06 174.58 -16.8 Z M 175.54 -16.75 L 175.54 -16.75 Q 175.54 -13.39 176.78 -10.44 Q 178.03 -7.49 180.24 -5.26 Q 182.45 -3.02 185.38 -1.78 Q 188.3 -0.53 191.62 -0.53 L 191.62 -0.53 Q 195.02 -0.53 198 -1.78 Q 200.98 -3.02 203.23 -5.26 Q 205.49 -7.49 206.78 -10.44 Q 208.08 -13.39 208.08 -16.8 L 208.08 -16.8 Q 208.08 -20.16 206.78 -23.11 Q 205.49 -26.06 203.26 -28.32 Q 201.02 -30.58 198.07 -31.87 Q 195.12 -33.17 191.76 -33.17 L 191.76 -33.17 Q 188.3 -33.17 185.35 -31.85 Q 182.4 -30.53 180.19 -28.22 Q 177.98 -25.92 176.76 -22.97 Q 175.54 -20.02 175.54 -16.75 Z M 228.53 0 L 228.53 -33.7 L 229.49 -33.7 L 229.49 -0.91 L 248.78 -0.91 L 248.78 0 L 228.53 0 Z" stroke-linecap="round"/>
</g>
</g>
</g>
<g transform="matrix(1.9211538461538462 0 0 1.9211538461538462 640 753.2544604503686)" id="tagline-f01e7ca5-7c95-44c6-9169-e8ea365c5d37-logo">
<g style="" paint-order="stroke">
		<g transform="matrix(1 0 0 1 0 0)" id="tagline-f01e7ca5-7c95-44c6-9169-e8ea365c5d37-logo-path-0">
<path style="stroke: none; stroke-width: 0; stroke-dasharray: none; stroke-linecap: butt; stroke-dashoffset: 0; stroke-linejoin: miter; stroke-miterlimit: 4; fill: rgb(93,38,201); fill-rule: nonzero; opacity: 1;" paint-order="stroke" transform=" translate(0, 0)" d="" stroke-linecap="round"/>
</g>
</g>
</g>
</svg>